<svg width="289" height="61" viewBox="0 0 289 61" fill="none" xmlns="http://www.w3.org/2000/svg">
<path d="M4.68183 23H0.84183V0.875H7.03683L15.1218 21.395L14.5368 21.56V0.875H18.3918V23H12.1068L4.05183 2.525L4.68183 2.375V23ZM26.0978 4.025L27.8828 2.06V11.51L26.9528 10.325H35.2328V13.475H26.9528L27.8828 12.305V21.815L26.0978 19.85H36.8978V23H23.9078V0.875H36.8978V4.025H26.0978ZM46.2436 23H42.4036V0.875H48.5986L56.6836 21.395L56.0986 21.56V0.875H59.9536V23H53.6686L45.6136 2.525L46.2436 2.375V23ZM82.0296 0.875V23H78.0696V12.2L79.8546 13.55H67.6446L69.4296 12.23V23H65.4696V0.875H69.4296V11.78L67.6446 10.4H79.8546L78.0696 11.765V0.875H82.0296ZM103.664 14.96C103.664 17.78 102.944 19.88 101.504 21.26C100.074 22.64 98.0995 23.33 95.5795 23.33C93.0795 23.33 91.1145 22.64 89.6845 21.26C88.2545 19.88 87.5395 17.78 87.5395 14.96C87.5395 14.55 87.5395 14.12 87.5395 13.67C87.5395 13.22 87.5395 12.75 87.5395 12.26V0.875H91.4995V12.77C91.4995 13.19 91.4995 13.585 91.4995 13.955C91.4995 14.325 91.4995 14.67 91.4995 14.99C91.4995 16.77 91.8295 18.065 92.4895 18.875C93.1595 19.685 94.1895 20.09 95.5795 20.09C96.9895 20.09 98.0295 19.685 98.6995 18.875C99.3695 18.065 99.7045 16.77 99.7045 14.99V0.875H103.664V14.96ZM124.86 0.875H131.58V23H127.815V3.395L127.905 3.425L123.15 23H117.87L113.055 3.41L113.145 3.365V23H109.38V0.875H116.1L120.585 20.84H120.33L124.86 0.875ZM150.414 23H146.454V0.875H153.564C155.264 0.875 156.699 1.2 157.869 1.85C159.049 2.49 159.944 3.365 160.554 4.475C161.174 5.575 161.484 6.805 161.484 8.165C161.484 9.535 161.174 10.79 160.554 11.93C159.934 13.07 159.029 13.985 157.839 14.675C156.659 15.355 155.234 15.695 153.564 15.695H150.414V23ZM150.414 14.435L148.629 12.56H153.129C154.049 12.56 154.834 12.385 155.484 12.035C156.134 11.675 156.629 11.17 156.969 10.52C157.319 9.86 157.494 9.075 157.494 8.165C157.494 7.255 157.324 6.495 156.984 5.885C156.654 5.265 156.164 4.8 155.514 4.49C154.864 4.18 154.069 4.025 153.129 4.025H148.629L150.414 2.06V14.435ZM166.21 23V0.875H174.73C176.96 0.875 178.635 1.385 179.755 2.405C180.875 3.425 181.435 4.925 181.435 6.905C181.435 8.065 181.215 9.05 180.775 9.86C180.335 10.67 179.8 11.295 179.17 11.735C178.54 12.175 177.94 12.425 177.37 12.485C177.95 12.525 178.51 12.675 179.05 12.935C179.59 13.195 180.03 13.605 180.37 14.165C180.72 14.715 180.895 15.46 180.895 16.4C180.895 17.15 180.895 17.9 180.895 18.65C180.895 19.39 180.895 20.135 180.895 20.885C180.895 21.355 180.935 21.79 181.015 22.19C181.095 22.58 181.195 22.85 181.315 23H177.34C177.24 22.82 177.15 22.545 177.07 22.175C177 21.795 176.965 21.365 176.965 20.885C176.965 20.205 176.965 19.54 176.965 18.89C176.965 18.23 176.965 17.555 176.965 16.865C176.965 15.955 176.71 15.265 176.2 14.795C175.69 14.325 174.92 14.09 173.89 14.09H169.015L170.065 12.755V23H166.21ZM170.065 12.425L169.015 10.94H173.92C174.57 10.94 175.155 10.79 175.675 10.49C176.195 10.18 176.605 9.75 176.905 9.2C177.215 8.65 177.37 8.005 177.37 7.265C177.37 6.185 177.06 5.375 176.44 4.835C175.82 4.295 174.94 4.025 173.8 4.025H168.91L170.065 2.63V12.425ZM195.521 23.33C194.181 23.33 192.931 23.08 191.771 22.58C190.611 22.08 189.591 21.345 188.711 20.375C187.841 19.395 187.161 18.2 186.671 16.79C186.191 15.37 185.951 13.745 185.951 11.915C185.951 10.085 186.191 8.465 186.671 7.055C187.161 5.645 187.841 4.46 188.711 3.5C189.581 2.53 190.596 1.8 191.756 1.31C192.926 0.809999 194.181 0.559999 195.521 0.559999C196.881 0.559999 198.141 0.809999 199.301 1.31C200.471 1.8 201.491 2.53 202.361 3.5C203.231 4.46 203.906 5.645 204.386 7.055C204.876 8.465 205.121 10.085 205.121 11.915C205.121 13.745 204.876 15.37 204.386 16.79C203.896 18.2 203.211 19.395 202.331 20.375C201.461 21.345 200.446 22.08 199.286 22.58C198.126 23.08 196.871 23.33 195.521 23.33ZM195.521 20.075C196.561 20.075 197.501 19.795 198.341 19.235C199.181 18.665 199.846 17.78 200.336 16.58C200.836 15.38 201.086 13.825 201.086 11.915C201.086 9.995 200.836 8.445 200.336 7.265C199.836 6.075 199.166 5.205 198.326 4.655C197.486 4.105 196.551 3.83 195.521 3.83C194.511 3.83 193.581 4.105 192.731 4.655C191.891 5.205 191.216 6.075 190.706 7.265C190.206 8.445 189.956 9.995 189.956 11.915C189.956 13.835 190.206 15.395 190.706 16.595C191.216 17.795 191.891 18.675 192.731 19.235C193.581 19.795 194.511 20.075 195.521 20.075ZM210.027 23V0.875H216.642C218.112 0.875 219.447 1.14 220.647 1.67C221.847 2.19 222.877 2.935 223.737 3.905C224.597 4.875 225.262 6.04 225.732 7.4C226.202 8.75 226.437 10.255 226.437 11.915C226.437 13.575 226.202 15.085 225.732 16.445C225.262 17.795 224.597 18.96 223.737 19.94C222.877 20.92 221.847 21.675 220.647 22.205C219.447 22.735 218.112 23 216.642 23H210.027ZM213.987 21.815L212.202 19.85H216.132C217.332 19.85 218.402 19.53 219.342 18.89C220.292 18.24 221.042 17.325 221.592 16.145C222.142 14.955 222.417 13.545 222.417 11.915C222.417 10.275 222.142 8.865 221.592 7.685C221.042 6.505 220.292 5.6 219.342 4.97C218.402 4.34 217.332 4.025 216.132 4.025H212.202L213.987 2.06V21.815ZM247.461 14.96C247.461 17.78 246.741 19.88 245.301 21.26C243.871 22.64 241.896 23.33 239.376 23.33C236.876 23.33 234.911 22.64 233.481 21.26C232.051 19.88 231.336 17.78 231.336 14.96C231.336 14.55 231.336 14.12 231.336 13.67C231.336 13.22 231.336 12.75 231.336 12.26V0.875H235.296V12.77C235.296 13.19 235.296 13.585 235.296 13.955C235.296 14.325 235.296 14.67 235.296 14.99C235.296 16.77 235.626 18.065 236.286 18.875C236.956 19.685 237.986 20.09 239.376 20.09C240.786 20.09 241.826 19.685 242.496 18.875C243.166 18.065 243.501 16.77 243.501 14.99V0.875H247.461V14.96ZM267.141 4.025H260.136L261.591 2.06V23H257.631V2.06L259.161 4.025H252.096V0.875H267.141V4.025ZM279.172 23.33C277.832 23.33 276.582 23.08 275.422 22.58C274.262 22.08 273.242 21.345 272.362 20.375C271.492 19.395 270.812 18.2 270.322 16.79C269.842 15.37 269.602 13.745 269.602 11.915C269.602 10.085 269.842 8.465 270.322 7.055C270.812 5.645 271.492 4.46 272.362 3.5C273.232 2.53 274.247 1.8 275.407 1.31C276.577 0.809999 277.832 0.559999 279.172 0.559999C280.532 0.559999 281.792 0.809999 282.952 1.31C284.122 1.8 285.142 2.53 286.012 3.5C286.882 4.46 287.557 5.645 288.037 7.055C288.527 8.465 288.772 10.085 288.772 11.915C288.772 13.745 288.527 15.37 288.037 16.79C287.547 18.2 286.862 19.395 285.982 20.375C285.112 21.345 284.097 22.08 282.937 22.58C281.777 23.08 280.522 23.33 279.172 23.33ZM279.172 20.075C280.212 20.075 281.152 19.795 281.992 19.235C282.832 18.665 283.497 17.78 283.987 16.58C284.487 15.38 284.737 13.825 284.737 11.915C284.737 9.995 284.487 8.445 283.987 7.265C283.487 6.075 282.817 5.205 281.977 4.655C281.137 4.105 280.202 3.83 279.172 3.83C278.162 3.83 277.232 4.105 276.382 4.655C275.542 5.205 274.867 6.075 274.357 7.265C273.857 8.445 273.607 9.995 273.607 11.915C273.607 13.835 273.857 15.395 274.357 16.595C274.867 17.795 275.542 18.675 276.382 19.235C277.232 19.795 278.162 20.075 279.172 20.075ZM12.3618 41.025L14.1468 39.06V48.645L12.9168 47.58H21.9468V50.745H12.9168L14.1468 49.605V60H10.2168V37.875H23.2818V41.025H12.3618ZM35.7196 60.33C34.3796 60.33 33.1296 60.08 31.9696 59.58C30.8096 59.08 29.7896 58.345 28.9096 57.375C28.0396 56.395 27.3596 55.2 26.8696 53.79C26.3896 52.37 26.1496 50.745 26.1496 48.915C26.1496 47.085 26.3896 45.465 26.8696 44.055C27.3596 42.645 28.0396 41.46 28.9096 40.5C29.7796 39.53 30.7946 38.8 31.9546 38.31C33.1246 37.81 34.3796 37.56 35.7196 37.56C37.0796 37.56 38.3396 37.81 39.4996 38.31C40.6696 38.8 41.6896 39.53 42.5596 40.5C43.4296 41.46 44.1046 42.645 44.5846 44.055C45.0746 45.465 45.3196 47.085 45.3196 48.915C45.3196 50.745 45.0746 52.37 44.5846 53.79C44.0946 55.2 43.4096 56.395 42.5296 57.375C41.6596 58.345 40.6446 59.08 39.4846 59.58C38.3246 60.08 37.0696 60.33 35.7196 60.33ZM35.7196 57.075C36.7596 57.075 37.6996 56.795 38.5396 56.235C39.3796 55.665 40.0446 54.78 40.5346 53.58C41.0346 52.38 41.2846 50.825 41.2846 48.915C41.2846 46.995 41.0346 45.445 40.5346 44.265C40.0346 43.075 39.3646 42.205 38.5246 41.655C37.6846 41.105 36.7496 40.83 35.7196 40.83C34.7096 40.83 33.7796 41.105 32.9296 41.655C32.0896 42.205 31.4146 43.075 30.9046 44.265C30.4046 45.445 30.1546 46.995 30.1546 48.915C30.1546 50.835 30.4046 52.395 30.9046 53.595C31.4146 54.795 32.0896 55.675 32.9296 56.235C33.7796 56.795 34.7096 57.075 35.7196 57.075ZM50.2558 60V37.875H54.1558V60H50.2558ZM71.0381 41.025L72.8231 39.06V48.51L71.8931 47.325H80.1731V50.475H71.8931L72.8231 49.305V58.815L71.0381 56.85H81.8381V60H68.8481V37.875H81.8381V41.025H71.0381ZM91.1838 60H87.3438V37.875H93.5388L101.624 58.395L101.039 58.56V37.875H104.894V60H98.6088L90.5538 39.525L91.1838 39.375V60ZM127.885 52.035C127.885 52.975 127.71 53.93 127.36 54.9C127.01 55.87 126.475 56.77 125.755 57.6C125.045 58.42 124.145 59.08 123.055 59.58C121.965 60.08 120.685 60.33 119.215 60.33C117.225 60.33 115.525 59.845 114.115 58.875C112.715 57.895 111.645 56.55 110.905 54.84C110.175 53.13 109.81 51.165 109.81 48.945C109.81 46.715 110.175 44.745 110.905 43.035C111.645 41.325 112.715 39.985 114.115 39.015C115.525 38.045 117.225 37.56 119.215 37.56C120.865 37.56 122.275 37.875 123.445 38.505C124.615 39.135 125.55 39.945 126.25 40.935C126.95 41.925 127.42 42.96 127.66 44.04C127.81 44.67 127.885 45.27 127.885 45.84H123.91C123.91 45.55 123.89 45.25 123.85 44.94C123.74 44.18 123.485 43.49 123.085 42.87C122.695 42.24 122.175 41.745 121.525 41.385C120.875 41.015 120.105 40.83 119.215 40.83C118.155 40.83 117.22 41.125 116.41 41.715C115.61 42.305 114.98 43.2 114.52 44.4C114.06 45.6 113.83 47.115 113.83 48.945C113.83 50.755 114.06 52.265 114.52 53.475C114.98 54.685 115.61 55.59 116.41 56.19C117.22 56.79 118.155 57.09 119.215 57.09C119.975 57.09 120.645 56.95 121.225 56.67C121.805 56.39 122.295 56.015 122.695 55.545C123.095 55.065 123.395 54.525 123.595 53.925C123.805 53.325 123.91 52.695 123.91 52.035H127.885ZM141.772 60.33C140.432 60.33 139.182 60.08 138.022 59.58C136.862 59.08 135.842 58.345 134.962 57.375C134.092 56.395 133.412 55.2 132.922 53.79C132.442 52.37 132.202 50.745 132.202 48.915C132.202 47.085 132.442 45.465 132.922 44.055C133.412 42.645 134.092 41.46 134.962 40.5C135.832 39.53 136.847 38.8 138.007 38.31C139.177 37.81 140.432 37.56 141.772 37.56C143.132 37.56 144.392 37.81 145.552 38.31C146.722 38.8 147.742 39.53 148.612 40.5C149.482 41.46 150.157 42.645 150.637 44.055C151.127 45.465 151.372 47.085 151.372 48.915C151.372 50.745 151.127 52.37 150.637 53.79C150.147 55.2 149.462 56.395 148.582 57.375C147.712 58.345 146.697 59.08 145.537 59.58C144.377 60.08 143.122 60.33 141.772 60.33ZM141.772 57.075C142.812 57.075 143.752 56.795 144.592 56.235C145.432 55.665 146.097 54.78 146.587 53.58C147.087 52.38 147.337 50.825 147.337 48.915C147.337 46.995 147.087 45.445 146.587 44.265C146.087 43.075 145.417 42.205 144.577 41.655C143.737 41.105 142.802 40.83 141.772 40.83C140.762 40.83 139.832 41.105 138.982 41.655C138.142 42.205 137.467 43.075 136.957 44.265C136.457 45.445 136.207 46.995 136.207 48.915C136.207 50.835 136.457 52.395 136.957 53.595C137.467 54.795 138.142 55.675 138.982 56.235C139.832 56.795 140.762 57.075 141.772 57.075ZM160.118 60H156.278V37.875H162.473L170.558 58.395L169.973 58.56V37.875H173.828V60H167.543L159.488 39.525L160.118 39.375V60ZM193.519 41.025H186.514L187.969 39.06V60H184.009V39.06L185.539 41.025H178.474V37.875H193.519V41.025ZM198.162 60V37.875H206.682C208.912 37.875 210.587 38.385 211.707 39.405C212.827 40.425 213.387 41.925 213.387 43.905C213.387 45.065 213.167 46.05 212.727 46.86C212.287 47.67 211.752 48.295 211.122 48.735C210.492 49.175 209.892 49.425 209.322 49.485C209.902 49.525 210.462 49.675 211.002 49.935C211.542 50.195 211.982 50.605 212.322 51.165C212.672 51.715 212.847 52.46 212.847 53.4C212.847 54.15 212.847 54.9 212.847 55.65C212.847 56.39 212.847 57.135 212.847 57.885C212.847 58.355 212.887 58.79 212.967 59.19C213.047 59.58 213.147 59.85 213.267 60H209.292C209.192 59.82 209.102 59.545 209.022 59.175C208.952 58.795 208.917 58.365 208.917 57.885C208.917 57.205 208.917 56.54 208.917 55.89C208.917 55.23 208.917 54.555 208.917 53.865C208.917 52.955 208.662 52.265 208.152 51.795C207.642 51.325 206.872 51.09 205.842 51.09H200.967L202.017 49.755V60H198.162ZM202.017 49.425L200.967 47.94H205.872C206.522 47.94 207.107 47.79 207.627 47.49C208.147 47.18 208.557 46.75 208.857 46.2C209.167 45.65 209.322 45.005 209.322 44.265C209.322 43.185 209.012 42.375 208.392 41.835C207.772 41.295 206.892 41.025 205.752 41.025H200.862L202.017 39.63V49.425ZM217.514 60L223.229 37.845H229.469L235.139 60H231.074L226.334 40.29H226.364L221.579 60H217.514ZM221.204 54.615V51.45H231.494V54.615H221.204ZM239.519 60V37.875H246.134C247.604 37.875 248.939 38.14 250.139 38.67C251.339 39.19 252.369 39.935 253.229 40.905C254.089 41.875 254.754 43.04 255.224 44.4C255.694 45.75 255.929 47.255 255.929 48.915C255.929 50.575 255.694 52.085 255.224 53.445C254.754 54.795 254.089 55.96 253.229 56.94C252.369 57.92 251.339 58.675 250.139 59.205C248.939 59.735 247.604 60 246.134 60H239.519ZM243.479 58.815L241.694 56.85H245.624C246.824 56.85 247.894 56.53 248.834 55.89C249.784 55.24 250.534 54.325 251.084 53.145C251.634 51.955 251.909 50.545 251.909 48.915C251.909 47.275 251.634 45.865 251.084 44.685C250.534 43.505 249.784 42.6 248.834 41.97C247.894 41.34 246.824 41.025 245.624 41.025H241.694L243.479 39.06V58.815ZM269.797 60.33C268.457 60.33 267.207 60.08 266.047 59.58C264.887 59.08 263.867 58.345 262.987 57.375C262.117 56.395 261.437 55.2 260.947 53.79C260.467 52.37 260.227 50.745 260.227 48.915C260.227 47.085 260.467 45.465 260.947 44.055C261.437 42.645 262.117 41.46 262.987 40.5C263.857 39.53 264.872 38.8 266.032 38.31C267.202 37.81 268.457 37.56 269.797 37.56C271.157 37.56 272.417 37.81 273.577 38.31C274.747 38.8 275.767 39.53 276.637 40.5C277.507 41.46 278.182 42.645 278.662 44.055C279.152 45.465 279.397 47.085 279.397 48.915C279.397 50.745 279.152 52.37 278.662 53.79C278.172 55.2 277.487 56.395 276.607 57.375C275.737 58.345 274.722 59.08 273.562 59.58C272.402 60.08 271.147 60.33 269.797 60.33ZM269.797 57.075C270.837 57.075 271.777 56.795 272.617 56.235C273.457 55.665 274.122 54.78 274.612 53.58C275.112 52.38 275.362 50.825 275.362 48.915C275.362 46.995 275.112 45.445 274.612 44.265C274.112 43.075 273.442 42.205 272.602 41.655C271.762 41.105 270.827 40.83 269.797 40.83C268.787 40.83 267.857 41.105 267.007 41.655C266.167 42.205 265.492 43.075 264.982 44.265C264.482 45.445 264.232 46.995 264.232 48.915C264.232 50.835 264.482 52.395 264.982 53.595C265.492 54.795 266.167 55.675 267.007 56.235C267.857 56.795 268.787 57.075 269.797 57.075Z" fill="#31C28D"/>
</svg>
