<svg width="227" height="61" viewBox="0 0 227 61" fill="none" xmlns="http://www.w3.org/2000/svg">
<path d="M8.23809 23.33C6.66809 23.33 5.29809 23.08 4.12809 22.58C2.95809 22.08 2.04809 21.33 1.39809 20.33C0.748089 19.32 0.423089 18.07 0.423089 16.58C0.423089 16.41 0.423089 16.26 0.423089 16.13C0.423089 15.99 0.423089 15.835 0.423089 15.665H4.36809C4.36809 15.815 4.36809 15.955 4.36809 16.085C4.36809 16.205 4.36809 16.345 4.36809 16.505C4.36809 17.705 4.69309 18.605 5.34309 19.205C6.00309 19.795 6.97309 20.09 8.25309 20.09C9.54309 20.09 10.5281 19.875 11.2081 19.445C11.8981 19.015 12.2431 18.325 12.2431 17.375C12.2431 16.685 12.0081 16.1 11.5381 15.62C11.0781 15.13 10.4431 14.7 9.63309 14.33C8.82309 13.96 7.90309 13.615 6.87309 13.295C5.71309 12.935 4.65809 12.47 3.70809 11.9C2.75809 11.33 1.99809 10.61 1.42809 9.74C0.858089 8.87 0.573089 7.8 0.573089 6.53C0.573089 5.26 0.898089 4.18 1.54809 3.29C2.20809 2.4 3.10809 1.725 4.24809 1.265C5.39809 0.794999 6.70309 0.559999 8.16309 0.559999C9.69309 0.559999 11.0381 0.799999 12.1981 1.28C13.3681 1.76 14.2831 2.475 14.9431 3.425C15.6031 4.375 15.9331 5.56 15.9331 6.98C15.9331 7.17 15.9331 7.335 15.9331 7.475C15.9331 7.615 15.9331 7.775 15.9331 7.955H11.9731C11.9731 7.825 11.9731 7.695 11.9731 7.565C11.9731 7.425 11.9731 7.29 11.9731 7.16C11.9731 6.02 11.6631 5.18 11.0431 4.64C10.4231 4.09 9.48309 3.815 8.22309 3.815C6.99309 3.815 6.04809 4.03 5.38809 4.46C4.72809 4.89 4.39809 5.575 4.39809 6.515C4.39809 7.215 4.62309 7.8 5.07309 8.27C5.52309 8.74 6.13809 9.15 6.91809 9.5C7.70809 9.84 8.60309 10.185 9.60309 10.535C10.9331 10.975 12.0831 11.475 13.0531 12.035C14.0231 12.585 14.7731 13.275 15.3031 14.105C15.8331 14.925 16.0981 15.97 16.0981 17.24C16.0981 18.54 15.7681 19.645 15.1081 20.555C14.4581 21.455 13.5431 22.145 12.3631 22.625C11.1931 23.095 9.81809 23.33 8.23809 23.33ZM23.2029 4.025L24.9879 2.06V11.51L24.0579 10.325H32.3379V13.475H24.0579L24.9879 12.305V21.815L23.2029 19.85H34.0029V23H21.0129V0.875H34.0029V4.025H23.2029ZM55.6336 14.96C55.6336 17.78 54.9136 19.88 53.4736 21.26C52.0436 22.64 50.0686 23.33 47.5486 23.33C45.0486 23.33 43.0836 22.64 41.6536 21.26C40.2236 19.88 39.5086 17.78 39.5086 14.96C39.5086 14.55 39.5086 14.12 39.5086 13.67C39.5086 13.22 39.5086 12.75 39.5086 12.26V0.875H43.4686V12.77C43.4686 13.19 43.4686 13.585 43.4686 13.955C43.4686 14.325 43.4686 14.67 43.4686 14.99C43.4686 16.77 43.7986 18.065 44.4586 18.875C45.1286 19.685 46.1586 20.09 47.5486 20.09C48.9586 20.09 49.9986 19.685 50.6686 18.875C51.3386 18.065 51.6736 16.77 51.6736 14.99V0.875H55.6336V14.96ZM87.7641 15.035C87.7641 15.975 87.5891 16.93 87.2391 17.9C86.8891 18.87 86.3541 19.77 85.6341 20.6C84.9241 21.42 84.0241 22.08 82.9341 22.58C81.8441 23.08 80.5641 23.33 79.0941 23.33C77.1041 23.33 75.4041 22.845 73.9941 21.875C72.5941 20.895 71.5241 19.55 70.7841 17.84C70.0541 16.13 69.6891 14.165 69.6891 11.945C69.6891 9.715 70.0541 7.745 70.7841 6.035C71.5241 4.325 72.5941 2.985 73.9941 2.015C75.4041 1.045 77.1041 0.559999 79.0941 0.559999C80.7441 0.559999 82.1541 0.874999 83.3241 1.505C84.4941 2.135 85.4291 2.945 86.1291 3.935C86.8291 4.925 87.2991 5.96 87.5391 7.04C87.6891 7.67 87.7641 8.27 87.7641 8.84H83.7891C83.7891 8.55 83.7691 8.25 83.7291 7.94C83.6191 7.18 83.3641 6.49 82.9641 5.87C82.5741 5.24 82.0541 4.745 81.4041 4.385C80.7541 4.015 79.9841 3.83 79.0941 3.83C78.0341 3.83 77.0991 4.125 76.2891 4.715C75.4891 5.305 74.8591 6.2 74.3991 7.4C73.9391 8.6 73.7091 10.115 73.7091 11.945C73.7091 13.755 73.9391 15.265 74.3991 16.475C74.8591 17.685 75.4891 18.59 76.2891 19.19C77.0991 19.79 78.0341 20.09 79.0941 20.09C79.8541 20.09 80.5241 19.95 81.1041 19.67C81.6841 19.39 82.1741 19.015 82.5741 18.545C82.9741 18.065 83.2741 17.525 83.4741 16.925C83.6841 16.325 83.7891 15.695 83.7891 15.035H87.7641ZM90.7245 23L96.4395 0.844998H102.679L108.349 23H104.284L99.5445 3.29H99.5745L94.7895 23H90.7245ZM94.4145 17.615V14.45H104.704V17.615H94.4145ZM112.73 23V0.875H121.25C123.48 0.875 125.155 1.385 126.275 2.405C127.395 3.425 127.955 4.925 127.955 6.905C127.955 8.065 127.735 9.05 127.295 9.86C126.855 10.67 126.32 11.295 125.69 11.735C125.06 12.175 124.46 12.425 123.89 12.485C124.47 12.525 125.03 12.675 125.57 12.935C126.11 13.195 126.55 13.605 126.89 14.165C127.24 14.715 127.415 15.46 127.415 16.4C127.415 17.15 127.415 17.9 127.415 18.65C127.415 19.39 127.415 20.135 127.415 20.885C127.415 21.355 127.455 21.79 127.535 22.19C127.615 22.58 127.715 22.85 127.835 23H123.86C123.76 22.82 123.67 22.545 123.59 22.175C123.52 21.795 123.485 21.365 123.485 20.885C123.485 20.205 123.485 19.54 123.485 18.89C123.485 18.23 123.485 17.555 123.485 16.865C123.485 15.955 123.23 15.265 122.72 14.795C122.21 14.325 121.44 14.09 120.41 14.09H115.535L116.585 12.755V23H112.73ZM116.585 12.425L115.535 10.94H120.44C121.09 10.94 121.675 10.79 122.195 10.49C122.715 10.18 123.125 9.75 123.425 9.2C123.735 8.65 123.89 8.005 123.89 7.265C123.89 6.185 123.58 5.375 122.96 4.835C122.34 4.295 121.46 4.025 120.32 4.025H115.43L116.585 2.63V12.425ZM133.071 23V0.875H141.591C143.821 0.875 145.496 1.385 146.616 2.405C147.736 3.425 148.296 4.925 148.296 6.905C148.296 8.065 148.076 9.05 147.636 9.86C147.196 10.67 146.661 11.295 146.031 11.735C145.401 12.175 144.801 12.425 144.231 12.485C144.811 12.525 145.371 12.675 145.911 12.935C146.451 13.195 146.891 13.605 147.231 14.165C147.581 14.715 147.756 15.46 147.756 16.4C147.756 17.15 147.756 17.9 147.756 18.65C147.756 19.39 147.756 20.135 147.756 20.885C147.756 21.355 147.796 21.79 147.876 22.19C147.956 22.58 148.056 22.85 148.176 23H144.201C144.101 22.82 144.011 22.545 143.931 22.175C143.861 21.795 143.826 21.365 143.826 20.885C143.826 20.205 143.826 19.54 143.826 18.89C143.826 18.23 143.826 17.555 143.826 16.865C143.826 15.955 143.571 15.265 143.061 14.795C142.551 14.325 141.781 14.09 140.751 14.09H135.876L136.926 12.755V23H133.071ZM136.926 12.425L135.876 10.94H140.781C141.431 10.94 142.016 10.79 142.536 10.49C143.056 10.18 143.466 9.75 143.766 9.2C144.076 8.65 144.231 8.005 144.231 7.265C144.231 6.185 143.921 5.375 143.301 4.835C142.681 4.295 141.801 4.025 140.661 4.025H135.771L136.926 2.63V12.425ZM153.443 23V0.875H157.343V23H153.443ZM166.725 23H162.885V0.875H169.08L177.165 21.395L176.58 21.56V0.875H180.435V23H174.15L166.095 2.525L166.725 2.375V23ZM202.511 0.875V23H198.551V12.2L200.336 13.55H188.126L189.911 12.23V23H185.951V0.875H189.911V11.78L188.126 10.4H200.336L198.551 11.765V0.875H202.511ZM216.991 23.33C215.651 23.33 214.401 23.08 213.241 22.58C212.081 22.08 211.061 21.345 210.181 20.375C209.311 19.395 208.631 18.2 208.141 16.79C207.661 15.37 207.421 13.745 207.421 11.915C207.421 10.085 207.661 8.465 208.141 7.055C208.631 5.645 209.311 4.46 210.181 3.5C211.051 2.53 212.066 1.8 213.226 1.31C214.396 0.809999 215.651 0.559999 216.991 0.559999C218.351 0.559999 219.611 0.809999 220.771 1.31C221.941 1.8 222.961 2.53 223.831 3.5C224.701 4.46 225.376 5.645 225.856 7.055C226.346 8.465 226.591 10.085 226.591 11.915C226.591 13.745 226.346 15.37 225.856 16.79C225.366 18.2 224.681 19.395 223.801 20.375C222.931 21.345 221.916 22.08 220.756 22.58C219.596 23.08 218.341 23.33 216.991 23.33ZM216.991 20.075C218.031 20.075 218.971 19.795 219.811 19.235C220.651 18.665 221.316 17.78 221.806 16.58C222.306 15.38 222.556 13.825 222.556 11.915C222.556 9.995 222.306 8.445 221.806 7.265C221.306 6.075 220.636 5.205 219.796 4.655C218.956 4.105 218.021 3.83 216.991 3.83C215.981 3.83 215.051 4.105 214.201 4.655C213.361 5.205 212.686 6.075 212.176 7.265C211.676 8.445 211.426 9.995 211.426 11.915C211.426 13.835 211.676 15.395 212.176 16.595C212.686 17.795 213.361 18.675 214.201 19.235C215.051 19.795 215.981 20.075 216.991 20.075ZM30.117 41.025L31.902 39.06V48.51L30.972 47.325H39.252V50.475H30.972L31.902 49.305V58.815L30.117 56.85H40.917V60H27.927V37.875H40.917V41.025H30.117ZM53.6377 60.33C52.0677 60.33 50.6977 60.08 49.5277 59.58C48.3577 59.08 47.4477 58.33 46.7977 57.33C46.1477 56.32 45.8227 55.07 45.8227 53.58C45.8227 53.41 45.8227 53.26 45.8227 53.13C45.8227 52.99 45.8227 52.835 45.8227 52.665H49.7677C49.7677 52.815 49.7677 52.955 49.7677 53.085C49.7677 53.205 49.7677 53.345 49.7677 53.505C49.7677 54.705 50.0927 55.605 50.7427 56.205C51.4027 56.795 52.3727 57.09 53.6527 57.09C54.9427 57.09 55.9277 56.875 56.6077 56.445C57.2977 56.015 57.6427 55.325 57.6427 54.375C57.6427 53.685 57.4077 53.1 56.9377 52.62C56.4777 52.13 55.8427 51.7 55.0327 51.33C54.2227 50.96 53.3027 50.615 52.2727 50.295C51.1127 49.935 50.0577 49.47 49.1077 48.9C48.1577 48.33 47.3977 47.61 46.8277 46.74C46.2577 45.87 45.9727 44.8 45.9727 43.53C45.9727 42.26 46.2977 41.18 46.9477 40.29C47.6077 39.4 48.5077 38.725 49.6477 38.265C50.7977 37.795 52.1027 37.56 53.5627 37.56C55.0927 37.56 56.4377 37.8 57.5977 38.28C58.7677 38.76 59.6827 39.475 60.3427 40.425C61.0027 41.375 61.3327 42.56 61.3327 43.98C61.3327 44.17 61.3327 44.335 61.3327 44.475C61.3327 44.615 61.3327 44.775 61.3327 44.955H57.3727C57.3727 44.825 57.3727 44.695 57.3727 44.565C57.3727 44.425 57.3727 44.29 57.3727 44.16C57.3727 43.02 57.0627 42.18 56.4427 41.64C55.8227 41.09 54.8827 40.815 53.6227 40.815C52.3927 40.815 51.4477 41.03 50.7877 41.46C50.1277 41.89 49.7977 42.575 49.7977 43.515C49.7977 44.215 50.0227 44.8 50.4727 45.27C50.9227 45.74 51.5377 46.15 52.3177 46.5C53.1077 46.84 54.0027 47.185 55.0027 47.535C56.3327 47.975 57.4827 48.475 58.4527 49.035C59.4227 49.585 60.1727 50.275 60.7027 51.105C61.2327 51.925 61.4977 52.97 61.4977 54.24C61.4977 55.54 61.1677 56.645 60.5077 57.555C59.8577 58.455 58.9427 59.145 57.7627 59.625C56.5927 60.095 55.2177 60.33 53.6377 60.33ZM80.5875 41.025H73.5825L75.0375 39.06V60H71.0775V39.06L72.6075 41.025H65.5425V37.875H80.5875V41.025ZM81.6917 60L87.4067 37.845H93.6467L99.3167 60H95.2517L90.5117 40.29H90.5417L85.7567 60H81.6917ZM85.3817 54.615V51.45H95.6717V54.615H85.3817ZM88.2317 36.66L92.3717 33.69H95.6717L91.1717 36.66H88.2317ZM117.643 60.075L112.003 37.875H116.368L120.688 57.48H120.493L124.768 37.875H129.133L123.538 60.075H117.643ZM130.646 60L136.361 37.845H142.601L148.271 60H144.206L139.466 40.29H139.496L134.711 60H130.646ZM134.336 54.615V51.45H144.626V54.615H134.336ZM156.697 56.85H166.522V60H152.257V57.255L162.262 41.01L162.292 41.025H152.947V37.875H166.657V40.575L156.697 56.805V56.85ZM171.675 60V37.875H175.575V60H171.675ZM190.087 60.33C188.747 60.33 187.497 60.08 186.337 59.58C185.177 59.08 184.157 58.345 183.277 57.375C182.407 56.395 181.727 55.2 181.237 53.79C180.757 52.37 180.517 50.745 180.517 48.915C180.517 47.085 180.757 45.465 181.237 44.055C181.727 42.645 182.407 41.46 183.277 40.5C184.147 39.53 185.162 38.8 186.322 38.31C187.492 37.81 188.747 37.56 190.087 37.56C191.447 37.56 192.707 37.81 193.867 38.31C195.037 38.8 196.057 39.53 196.927 40.5C197.797 41.46 198.472 42.645 198.952 44.055C199.442 45.465 199.687 47.085 199.687 48.915C199.687 50.745 199.442 52.37 198.952 53.79C198.462 55.2 197.777 56.395 196.897 57.375C196.027 58.345 195.012 59.08 193.852 59.58C192.692 60.08 191.437 60.33 190.087 60.33ZM190.087 57.075C191.127 57.075 192.067 56.795 192.907 56.235C193.747 55.665 194.412 54.78 194.902 53.58C195.402 52.38 195.652 50.825 195.652 48.915C195.652 46.995 195.402 45.445 194.902 44.265C194.402 43.075 193.732 42.205 192.892 41.655C192.052 41.105 191.117 40.83 190.087 40.83C189.077 40.83 188.147 41.105 187.297 41.655C186.457 42.205 185.782 43.075 185.272 44.265C184.772 45.445 184.522 46.995 184.522 48.915C184.522 50.835 184.772 52.395 185.272 53.595C185.782 54.795 186.457 55.675 187.297 56.235C188.147 56.795 189.077 57.075 190.087 57.075Z" fill="#31C28D"/>
</svg>
