<svg width="340" height="65" viewBox="0 0 340 65" fill="none" xmlns="http://www.w3.org/2000/svg">
<path d="M44.9498 27.075L39.3098 4.875H43.6748L47.9948 24.48H47.7998L52.0748 4.875H56.4398L50.8448 27.075H44.9498ZM68.8788 27.33C67.5388 27.33 66.2888 27.08 65.1288 26.58C63.9688 26.08 62.9488 25.345 62.0688 24.375C61.1988 23.395 60.5188 22.2 60.0288 20.79C59.5488 19.37 59.3088 17.745 59.3088 15.915C59.3088 14.085 59.5488 12.465 60.0288 11.055C60.5188 9.645 61.1988 8.46 62.0688 7.5C62.9388 6.53 63.9538 5.8 65.1138 5.31C66.2838 4.81 67.5388 4.56 68.8788 4.56C70.2388 4.56 71.4988 4.81 72.6588 5.31C73.8288 5.8 74.8488 6.53 75.7188 7.5C76.5888 8.46 77.2638 9.645 77.7438 11.055C78.2338 12.465 78.4788 14.085 78.4788 15.915C78.4788 17.745 78.2338 19.37 77.7438 20.79C77.2538 22.2 76.5688 23.395 75.6888 24.375C74.8188 25.345 73.8038 26.08 72.6438 26.58C71.4838 27.08 70.2288 27.33 68.8788 27.33ZM68.8788 24.075C69.9188 24.075 70.8588 23.795 71.6988 23.235C72.5388 22.665 73.2038 21.78 73.6938 20.58C74.1938 19.38 74.4438 17.825 74.4438 15.915C74.4438 13.995 74.1938 12.445 73.6938 11.265C73.1938 10.075 72.5238 9.205 71.6838 8.655C70.8438 8.105 69.9088 7.83 68.8788 7.83C67.8688 7.83 66.9388 8.105 66.0888 8.655C65.2488 9.205 64.5738 10.075 64.0638 11.265C63.5638 12.445 63.3138 13.995 63.3138 15.915C63.3138 17.835 63.5638 19.395 64.0638 20.595C64.5738 21.795 65.2488 22.675 66.0888 23.235C66.9388 23.795 67.8688 24.075 68.8788 24.075ZM100.86 19.035C100.86 19.975 100.685 20.93 100.335 21.9C99.985 22.87 99.45 23.77 98.73 24.6C98.02 25.42 97.12 26.08 96.03 26.58C94.94 27.08 93.66 27.33 92.19 27.33C90.2 27.33 88.5 26.845 87.09 25.875C85.69 24.895 84.62 23.55 83.88 21.84C83.15 20.13 82.785 18.165 82.785 15.945C82.785 13.715 83.15 11.745 83.88 10.035C84.62 8.325 85.69 6.985 87.09 6.015C88.5 5.045 90.2 4.56 92.19 4.56C93.84 4.56 95.25 4.875 96.42 5.505C97.59 6.135 98.525 6.945 99.225 7.935C99.925 8.925 100.395 9.96 100.635 11.04C100.785 11.67 100.86 12.27 100.86 12.84H96.885C96.885 12.55 96.865 12.25 96.825 11.94C96.715 11.18 96.46 10.49 96.06 9.87C95.67 9.24 95.15 8.745 94.5 8.385C93.85 8.015 93.08 7.83 92.19 7.83C91.13 7.83 90.195 8.125 89.385 8.715C88.585 9.305 87.955 10.2 87.495 11.4C87.035 12.6 86.805 14.115 86.805 15.945C86.805 17.755 87.035 19.265 87.495 20.475C87.955 21.685 88.585 22.59 89.385 23.19C90.195 23.79 91.13 24.09 92.19 24.09C92.95 24.09 93.62 23.95 94.2 23.67C94.78 23.39 95.27 23.015 95.67 22.545C96.07 22.065 96.37 21.525 96.57 20.925C96.78 20.325 96.885 19.695 96.885 19.035H100.86ZM107.967 8.025L109.752 6.06V15.51L108.822 14.325H117.102V17.475H108.822L109.752 16.305V25.815L107.967 23.85H118.767V27H105.777V4.875H118.767V8.025H107.967ZM107.652 3.69L111.117 0.719999H113.802L117.282 3.69H114.642L111.927 1.32H112.992L110.262 3.69H107.652ZM132.433 27L138.148 4.845H144.388L150.058 27H145.993L141.253 7.29H141.283L136.498 27H132.433ZM136.123 21.615V18.45H146.413V21.615H136.123ZM154.468 27V4.875H158.368V27H154.468ZM167.75 27H163.91V4.875H170.105L178.19 25.395L177.605 25.56V4.875H181.46V27H175.175L167.12 6.525L167.75 6.375V27ZM186.976 27V4.875H193.591C195.061 4.875 196.396 5.14 197.596 5.67C198.796 6.19 199.826 6.935 200.686 7.905C201.546 8.875 202.211 10.04 202.681 11.4C203.151 12.75 203.386 14.255 203.386 15.915C203.386 17.575 203.151 19.085 202.681 20.445C202.211 21.795 201.546 22.96 200.686 23.94C199.826 24.92 198.796 25.675 197.596 26.205C196.396 26.735 195.061 27 193.591 27H186.976ZM190.936 25.815L189.151 23.85H193.081C194.281 23.85 195.351 23.53 196.291 22.89C197.241 22.24 197.991 21.325 198.541 20.145C199.091 18.955 199.366 17.545 199.366 15.915C199.366 14.275 199.091 12.865 198.541 11.685C197.991 10.505 197.241 9.6 196.291 8.97C195.351 8.34 194.281 8.025 193.081 8.025H189.151L190.936 6.06V25.815ZM206.328 27L212.043 4.845H218.283L223.953 27H219.888L215.148 7.29H215.178L210.393 27H206.328ZM210.018 21.615V18.45H220.308V21.615H210.018ZM241.47 27H237.63V4.875H243.825L251.91 25.395L251.325 25.56V4.875H255.18V27H248.895L240.84 6.525L241.47 6.375V27ZM259.559 27L265.274 4.845H271.514L277.184 27H273.119L268.379 7.29H268.409L263.624 27H259.559ZM263.249 21.615V18.45H273.539V21.615H263.249ZM273.254 0.764999C273.244 1.205 273.139 1.665 272.939 2.145C272.749 2.615 272.449 3.015 272.039 3.345C271.629 3.675 271.099 3.84 270.449 3.84C269.939 3.84 269.509 3.74 269.159 3.54C268.809 3.34 268.519 3.14 268.289 2.94C268.069 2.75 267.844 2.585 267.614 2.445C267.394 2.305 267.139 2.235 266.849 2.235C266.479 2.235 266.214 2.36 266.054 2.61C265.904 2.85 265.824 3.145 265.814 3.495H263.729C263.749 3.035 263.864 2.565 264.074 2.085C264.294 1.605 264.619 1.205 265.049 0.884999C265.479 0.554999 266.024 0.389999 266.684 0.389999C267.164 0.389999 267.574 0.489999 267.914 0.689999C268.264 0.879998 268.549 1.07 268.769 1.26C268.999 1.45 269.234 1.62 269.474 1.77C269.714 1.92 269.964 1.995 270.224 1.995C270.574 1.995 270.819 1.88 270.959 1.65C271.099 1.41 271.174 1.115 271.184 0.764999H273.254ZM289.714 27.33C288.374 27.33 287.124 27.08 285.964 26.58C284.804 26.08 283.784 25.345 282.904 24.375C282.034 23.395 281.354 22.2 280.864 20.79C280.384 19.37 280.144 17.745 280.144 15.915C280.144 14.085 280.384 12.465 280.864 11.055C281.354 9.645 282.034 8.46 282.904 7.5C283.774 6.53 284.789 5.8 285.949 5.31C287.119 4.81 288.374 4.56 289.714 4.56C291.074 4.56 292.334 4.81 293.494 5.31C294.664 5.8 295.684 6.53 296.554 7.5C297.424 8.46 298.099 9.645 298.579 11.055C299.069 12.465 299.314 14.085 299.314 15.915C299.314 17.745 299.069 19.37 298.579 20.79C298.089 22.2 297.404 23.395 296.524 24.375C295.654 25.345 294.639 26.08 293.479 26.58C292.319 27.08 291.064 27.33 289.714 27.33ZM289.714 24.075C290.754 24.075 291.694 23.795 292.534 23.235C293.374 22.665 294.039 21.78 294.529 20.58C295.029 19.38 295.279 17.825 295.279 15.915C295.279 13.995 295.029 12.445 294.529 11.265C294.029 10.075 293.359 9.205 292.519 8.655C291.679 8.105 290.744 7.83 289.714 7.83C288.704 7.83 287.774 8.105 286.924 8.655C286.084 9.205 285.409 10.075 284.899 11.265C284.399 12.445 284.149 13.995 284.149 15.915C284.149 17.835 284.399 19.395 284.899 20.595C285.409 21.795 286.084 22.675 286.924 23.235C287.774 23.795 288.704 24.075 289.714 24.075ZM0.9061 64V41.875H9.4261C11.6561 41.875 13.3311 42.385 14.4511 43.405C15.5711 44.425 16.1311 45.925 16.1311 47.905C16.1311 49.065 15.9111 50.05 15.4711 50.86C15.0311 51.67 14.4961 52.295 13.8661 52.735C13.2361 53.175 12.6361 53.425 12.0661 53.485C12.6461 53.525 13.2061 53.675 13.7461 53.935C14.2861 54.195 14.7261 54.605 15.0661 55.165C15.4161 55.715 15.5911 56.46 15.5911 57.4C15.5911 58.15 15.5911 58.9 15.5911 59.65C15.5911 60.39 15.5911 61.135 15.5911 61.885C15.5911 62.355 15.6311 62.79 15.7111 63.19C15.7911 63.58 15.8911 63.85 16.0111 64H12.0361C11.9361 63.82 11.8461 63.545 11.7661 63.175C11.6961 62.795 11.6611 62.365 11.6611 61.885C11.6611 61.205 11.6611 60.54 11.6611 59.89C11.6611 59.23 11.6611 58.555 11.6611 57.865C11.6611 56.955 11.4061 56.265 10.8961 55.795C10.3861 55.325 9.6161 55.09 8.5861 55.09H3.7111L4.7611 53.755V64H0.9061ZM4.7611 53.425L3.7111 51.94H8.6161C9.2661 51.94 9.8511 51.79 10.3711 51.49C10.8911 51.18 11.3011 50.75 11.6011 50.2C11.9111 49.65 12.0661 49.005 12.0661 48.265C12.0661 47.185 11.7561 46.375 11.1361 45.835C10.5161 45.295 9.6361 45.025 8.4961 45.025H3.6061L4.7611 43.63V53.425ZM23.4375 45.025L25.2225 43.06V52.51L24.2925 51.325H32.5725V54.475H24.2925L25.2225 53.305V62.815L23.4375 60.85H34.2375V64H21.2475V41.875H34.2375V45.025H23.4375ZM38.1673 64L43.8823 41.845H50.1223L55.7923 64H51.7273L46.9873 44.29H47.0173L42.2323 64H38.1673ZM41.8573 58.615V55.45H52.1473V58.615H41.8573ZM60.1725 64V41.875H64.1325V62.815L62.3475 60.73H72.5175V64H60.1725ZM77.3213 64V41.875H81.2213V64H77.3213ZM90.6635 60.85H100.489V64H86.2235V61.255L96.2285 45.01L96.2585 45.025H86.9135V41.875H100.624V44.575L90.6635 60.805V60.85ZM113.643 64.33C112.303 64.33 111.053 64.08 109.893 63.58C108.733 63.08 107.713 62.345 106.833 61.375C105.963 60.395 105.283 59.2 104.793 57.79C104.313 56.37 104.073 54.745 104.073 52.915C104.073 51.085 104.313 49.465 104.793 48.055C105.283 46.645 105.963 45.46 106.833 44.5C107.703 43.53 108.718 42.8 109.878 42.31C111.048 41.81 112.303 41.56 113.643 41.56C115.003 41.56 116.263 41.81 117.423 42.31C118.593 42.8 119.613 43.53 120.483 44.5C121.353 45.46 122.028 46.645 122.508 48.055C122.998 49.465 123.243 51.085 123.243 52.915C123.243 54.745 122.998 56.37 122.508 57.79C122.018 59.2 121.333 60.395 120.453 61.375C119.583 62.345 118.568 63.08 117.408 63.58C116.248 64.08 114.993 64.33 113.643 64.33ZM113.643 61.075C114.683 61.075 115.623 60.795 116.463 60.235C117.303 59.665 117.968 58.78 118.458 57.58C118.958 56.38 119.208 54.825 119.208 52.915C119.208 50.995 118.958 49.445 118.458 48.265C117.958 47.075 117.288 46.205 116.448 45.655C115.608 45.105 114.673 44.83 113.643 44.83C112.633 44.83 111.703 45.105 110.853 45.655C110.013 46.205 109.338 47.075 108.828 48.265C108.328 49.445 108.078 50.995 108.078 52.915C108.078 54.835 108.328 56.395 108.828 57.595C109.338 58.795 110.013 59.675 110.853 60.235C111.703 60.795 112.633 61.075 113.643 61.075ZM144.274 55.96C144.274 58.78 143.554 60.88 142.114 62.26C140.684 63.64 138.709 64.33 136.189 64.33C133.689 64.33 131.724 63.64 130.294 62.26C128.864 60.88 128.149 58.78 128.149 55.96C128.149 55.55 128.149 55.12 128.149 54.67C128.149 54.22 128.149 53.75 128.149 53.26V41.875H132.109V53.77C132.109 54.19 132.109 54.585 132.109 54.955C132.109 55.325 132.109 55.67 132.109 55.99C132.109 57.77 132.439 59.065 133.099 59.875C133.769 60.685 134.799 61.09 136.189 61.09C137.599 61.09 138.639 60.685 139.309 59.875C139.979 59.065 140.314 57.77 140.314 55.99V41.875H144.274V55.96ZM175.055 55.96C175.055 58.78 174.335 60.88 172.895 62.26C171.465 63.64 169.49 64.33 166.97 64.33C164.47 64.33 162.505 63.64 161.075 62.26C159.645 60.88 158.93 58.78 158.93 55.96C158.93 55.55 158.93 55.12 158.93 54.67C158.93 54.22 158.93 53.75 158.93 53.26V41.875H162.89V53.77C162.89 54.19 162.89 54.585 162.89 54.955C162.89 55.325 162.89 55.67 162.89 55.99C162.89 57.77 163.22 59.065 163.88 59.875C164.55 60.685 165.58 61.09 166.97 61.09C168.38 61.09 169.42 60.685 170.09 59.875C170.76 59.065 171.095 57.77 171.095 55.99V41.875H175.055V55.96ZM196.25 41.875H202.97V64H199.205V44.395L199.295 44.425L194.54 64H189.26L184.445 44.41L184.535 44.365V64H180.77V41.875H187.49L191.975 61.84H191.72L196.25 41.875ZM207.558 64L213.273 41.845H219.513L225.183 64H221.118L216.378 44.29H216.408L211.623 64H207.558ZM211.248 58.615V55.45H221.538V58.615H211.248ZM247.14 41.875C248.62 41.875 249.85 42.085 250.83 42.505C251.81 42.915 252.545 43.515 253.035 44.305C253.535 45.095 253.785 46.06 253.785 47.2C253.785 48.3 253.56 49.235 253.11 50.005C252.67 50.765 252.11 51.35 251.43 51.76C250.75 52.17 250.05 52.4 249.33 52.45C250.09 52.47 250.85 52.655 251.61 53.005C252.38 53.355 253.02 53.915 253.53 54.685C254.04 55.455 254.295 56.49 254.295 57.79C254.295 59.02 254.05 60.105 253.56 61.045C253.07 61.975 252.29 62.7 251.22 63.22C250.16 63.74 248.775 64 247.065 64H238.86V41.875H247.14ZM242.64 52.15L241.335 50.995H245.79C247.11 50.995 248.11 50.72 248.79 50.17C249.48 49.61 249.825 48.835 249.825 47.845C249.825 47.175 249.68 46.635 249.39 46.225C249.11 45.815 248.69 45.515 248.13 45.325C247.58 45.125 246.915 45.025 246.135 45.025H240.855L242.64 43.06V52.15ZM246.285 60.85C247.565 60.85 248.55 60.56 249.24 59.98C249.93 59.4 250.275 58.59 250.275 57.55C250.275 56.95 250.165 56.435 249.945 56.005C249.735 55.565 249.435 55.21 249.045 54.94C248.665 54.66 248.215 54.455 247.695 54.325C247.185 54.195 246.625 54.13 246.015 54.13H241.335L242.64 52.96V62.815L240.855 60.85H246.285ZM275.531 55.96C275.531 58.78 274.811 60.88 273.371 62.26C271.941 63.64 269.966 64.33 267.446 64.33C264.946 64.33 262.981 63.64 261.551 62.26C260.121 60.88 259.406 58.78 259.406 55.96C259.406 55.55 259.406 55.12 259.406 54.67C259.406 54.22 259.406 53.75 259.406 53.26V41.875H263.366V53.77C263.366 54.19 263.366 54.585 263.366 54.955C263.366 55.325 263.366 55.67 263.366 55.99C263.366 57.77 263.696 59.065 264.356 59.875C265.026 60.685 266.056 61.09 267.446 61.09C268.856 61.09 269.896 60.685 270.566 59.875C271.236 59.065 271.571 57.77 271.571 55.99V41.875H275.531V55.96ZM288.252 64.33C286.682 64.33 285.312 64.08 284.142 63.58C282.972 63.08 282.062 62.33 281.412 61.33C280.762 60.32 280.437 59.07 280.437 57.58C280.437 57.41 280.437 57.26 280.437 57.13C280.437 56.99 280.437 56.835 280.437 56.665H284.382C284.382 56.815 284.382 56.955 284.382 57.085C284.382 57.205 284.382 57.345 284.382 57.505C284.382 58.705 284.707 59.605 285.357 60.205C286.017 60.795 286.987 61.09 288.267 61.09C289.557 61.09 290.542 60.875 291.222 60.445C291.912 60.015 292.257 59.325 292.257 58.375C292.257 57.685 292.022 57.1 291.552 56.62C291.092 56.13 290.457 55.7 289.647 55.33C288.837 54.96 287.917 54.615 286.887 54.295C285.727 53.935 284.672 53.47 283.722 52.9C282.772 52.33 282.012 51.61 281.442 50.74C280.872 49.87 280.587 48.8 280.587 47.53C280.587 46.26 280.912 45.18 281.562 44.29C282.222 43.4 283.122 42.725 284.262 42.265C285.412 41.795 286.717 41.56 288.177 41.56C289.707 41.56 291.052 41.8 292.212 42.28C293.382 42.76 294.297 43.475 294.957 44.425C295.617 45.375 295.947 46.56 295.947 47.98C295.947 48.17 295.947 48.335 295.947 48.475C295.947 48.615 295.947 48.775 295.947 48.955H291.987C291.987 48.825 291.987 48.695 291.987 48.565C291.987 48.425 291.987 48.29 291.987 48.16C291.987 47.02 291.677 46.18 291.057 45.64C290.437 45.09 289.497 44.815 288.237 44.815C287.007 44.815 286.062 45.03 285.402 45.46C284.742 45.89 284.412 46.575 284.412 47.515C284.412 48.215 284.637 48.8 285.087 49.27C285.537 49.74 286.152 50.15 286.932 50.5C287.722 50.84 288.617 51.185 289.617 51.535C290.947 51.975 292.097 52.475 293.067 53.035C294.037 53.585 294.787 54.275 295.317 55.105C295.847 55.925 296.112 56.97 296.112 58.24C296.112 59.54 295.782 60.645 295.122 61.555C294.472 62.455 293.557 63.145 292.377 63.625C291.207 64.095 289.832 64.33 288.252 64.33ZM318.502 56.035C318.502 56.975 318.327 57.93 317.977 58.9C317.627 59.87 317.092 60.77 316.372 61.6C315.662 62.42 314.762 63.08 313.672 63.58C312.582 64.08 311.302 64.33 309.832 64.33C307.842 64.33 306.142 63.845 304.732 62.875C303.332 61.895 302.262 60.55 301.522 58.84C300.792 57.13 300.427 55.165 300.427 52.945C300.427 50.715 300.792 48.745 301.522 47.035C302.262 45.325 303.332 43.985 304.732 43.015C306.142 42.045 307.842 41.56 309.832 41.56C311.482 41.56 312.892 41.875 314.062 42.505C315.232 43.135 316.167 43.945 316.867 44.935C317.567 45.925 318.037 46.96 318.277 48.04C318.427 48.67 318.502 49.27 318.502 49.84H314.527C314.527 49.55 314.507 49.25 314.467 48.94C314.357 48.18 314.102 47.49 313.702 46.87C313.312 46.24 312.792 45.745 312.142 45.385C311.492 45.015 310.722 44.83 309.832 44.83C308.772 44.83 307.837 45.125 307.027 45.715C306.227 46.305 305.597 47.2 305.137 48.4C304.677 49.6 304.447 51.115 304.447 52.945C304.447 54.755 304.677 56.265 305.137 57.475C305.597 58.685 306.227 59.59 307.027 60.19C307.837 60.79 308.772 61.09 309.832 61.09C310.592 61.09 311.262 60.95 311.842 60.67C312.422 60.39 312.912 60.015 313.312 59.545C313.712 59.065 314.012 58.525 314.212 57.925C314.422 57.325 314.527 56.695 314.527 56.035H318.502ZM321.462 64L327.177 41.845H333.417L339.087 64H335.022L330.282 44.29H330.312L325.527 64H321.462ZM325.152 58.615V55.45H335.442V58.615H325.152Z" fill="#31C28D"/>
</svg>
